<svg width="31" height="31" viewBox="0 0 31 31" fill="none" xmlns="http://www.w3.org/2000/svg">
<path fill-rule="evenodd" clip-rule="evenodd" d="M4.89688 0.492798C2.47799 0.492798 0.51709 2.4537 0.51709 4.87259V22.3916C0.51709 24.8105 2.47799 26.7714 4.89688 26.7714H14.0125C12.4464 25.152 11.4827 22.9463 11.4827 20.5154C11.4827 15.5449 15.5121 11.5154 20.4827 11.5154C22.8723 11.5154 25.0444 12.4467 26.6558 13.9662L26.6558 4.87259C26.6558 2.4537 24.6949 0.492798 22.276 0.492798H4.89688Z" fill="url(#paint0_linear_2626_4671)"/>
<path d="M18.234 0.484619L18.234 6.09338C18.234 7.23699 16.9788 7.93658 16.0062 7.33504L14.3554 6.31411C13.8849 6.02306 13.2902 6.02306 12.8196 6.31411L11.1688 7.33506C10.1962 7.9366 8.94097 7.23703 8.94097 6.09343L8.94092 0.484619H18.234Z" fill="url(#paint1_linear_2626_4671)"/>
<circle cx="20.4824" cy="20.5155" r="9" fill="#6B8EAE" stroke="#F5F7FA" stroke-width="2"/>
<path d="M29.4824 20.5154C29.4824 25.4859 25.453 29.5154 20.4824 29.5154C15.5119 29.5154 11.4824 25.4859 11.4824 20.5154C11.4824 15.5448 15.5119 11.5154 20.4824 11.5154C25.453 11.5154 29.4824 15.5448 29.4824 20.5154Z" fill="#6B8EAE"/>
<path fill-rule="evenodd" clip-rule="evenodd" d="M20.4824 12.5154C16.0641 12.5154 12.4824 16.0971 12.4824 20.5154C12.4824 24.9337 16.0641 28.5154 20.4824 28.5154C24.9007 28.5154 28.4824 24.9337 28.4824 20.5154C28.4824 16.0971 24.9007 12.5154 20.4824 12.5154ZM10.4824 20.5154C10.4824 14.9925 14.9596 10.5154 20.4824 10.5154C26.0053 10.5154 30.4824 14.9925 30.4824 20.5154C30.4824 26.0382 26.0053 30.5154 20.4824 30.5154C14.9596 30.5154 10.4824 26.0382 10.4824 20.5154Z" fill="#F5F7FA"/>
<path fill-rule="evenodd" clip-rule="evenodd" d="M20.4431 15.8213C20.8573 15.821 21.1933 16.1566 21.1936 16.5708L21.1955 19.6119L22.2079 18.5941C22.5 18.3004 22.9748 18.2991 23.2685 18.5912C23.5622 18.8834 23.5635 19.3582 23.2713 19.6519L20.9375 21.9982C20.7967 22.1398 20.6054 22.2193 20.4058 22.2193C20.2062 22.2193 20.0148 22.1398 19.874 21.9982L17.6189 19.7311C17.3268 19.4374 17.3281 18.9625 17.6217 18.6704C17.9154 18.3783 18.3903 18.3796 18.6824 18.6733L19.6956 19.6918L19.6936 16.5718C19.6933 16.1576 20.0289 15.8216 20.4431 15.8213ZM17.9731 23.5721C17.5589 23.5721 17.2231 23.9079 17.2231 24.3221C17.2231 24.7363 17.5589 25.0721 17.9731 25.0721H22.9167C23.3309 25.0721 23.6667 24.7363 23.6667 24.3221C23.6667 23.9079 23.3309 23.5721 22.9167 23.5721H17.9731Z" fill="white"/>
<defs>
<linearGradient id="paint0_linear_2626_4671" x1="13.5865" y1="0.492798" x2="13.5865" y2="26.7714" gradientUnits="userSpaceOnUse">
<stop stop-color="#D1AF8F"/>
<stop offset="1" stop-color="#A48466"/>
</linearGradient>
<linearGradient id="paint1_linear_2626_4671" x1="13.5933" y1="-0.663007" x2="13.5933" y2="11.8453" gradientUnits="userSpaceOnUse">
<stop stop-color="#855957"/>
<stop offset="0.354167" stop-color="#5B3836"/>
</linearGradient>
</defs>
</svg>
