<svg width="34" height="34" viewBox="0 0 34 34" fill="none" xmlns="http://www.w3.org/2000/svg">
<path d="M1.84082 7.77075C1.84082 5.85346 3.39509 4.29919 5.31237 4.29919H21.5054C23.4227 4.29919 24.9769 5.85346 24.9769 7.77075V27.0449C24.9769 28.9622 23.4227 30.5164 21.5054 30.5164H5.31237C3.39509 30.5164 1.84082 28.9621 1.84082 27.0449V7.77075Z" fill="url(#paint0_linear_2626_4687)"/>
<rect x="4.75928" y="7.03442" width="17.19" height="20.8916" rx="2.77724" fill="#334A71"/>
<path d="M4.75928 9.81167C4.75928 8.27784 6.00269 7.03442 7.53652 7.03442H19.172C20.7059 7.03442 21.9493 8.27784 21.9493 9.81167V24.9717C21.9493 26.5056 20.7059 27.749 19.172 27.749H7.53652C6.00269 27.749 4.75928 26.5056 4.75928 24.9718V9.81167Z" fill="url(#paint1_linear_2626_4687)"/>
<g filter="url(#filter0_d_2626_4687)">
<path fill-rule="evenodd" clip-rule="evenodd" d="M16.4656 2.8584H16.6785C18.4356 2.8584 19.8601 4.28285 19.8601 6.03999C19.8601 7.79712 18.4356 9.22157 16.6785 9.22157H10.0336C8.27649 9.22157 6.85205 7.79712 6.85205 6.03999C6.85205 4.28285 8.27649 2.8584 10.0336 2.8584H10.2472C10.606 1.91037 11.5223 1.23633 12.596 1.23633H14.1168C15.1905 1.23633 16.1068 1.91037 16.4656 2.8584Z" fill="url(#paint2_linear_2626_4687)"/>
</g>
<path fill-rule="evenodd" clip-rule="evenodd" d="M6.83545 12.3154C6.83545 11.9012 7.17124 11.5654 7.58545 11.5654H15.1678C15.582 11.5654 15.9178 11.9012 15.9178 12.3154C15.9178 12.7296 15.582 13.0654 15.1678 13.0654H7.58545C7.17124 13.0654 6.83545 12.7296 6.83545 12.3154Z" fill="url(#paint3_linear_2626_4687)" fill-opacity="0.4"/>
<path fill-rule="evenodd" clip-rule="evenodd" d="M6.83545 15.9153C6.83545 15.5011 7.17124 15.1653 7.58545 15.1653H10.9144C11.3286 15.1653 11.6644 15.5011 11.6644 15.9153C11.6644 16.3295 11.3286 16.6653 10.9144 16.6653H7.58545C7.17124 16.6653 6.83545 16.3295 6.83545 15.9153Z" fill="url(#paint4_linear_2626_4687)" fill-opacity="0.4"/>
<path d="M31.1592 22.7638C31.1592 27.7344 27.1297 31.7638 22.1592 31.7638C17.1886 31.7638 13.1592 27.7344 13.1592 22.7638C13.1592 17.7932 17.1886 13.7638 22.1592 13.7638C27.1297 13.7638 31.1592 17.7932 31.1592 22.7638Z" fill="#B36A6A"/>
<path fill-rule="evenodd" clip-rule="evenodd" d="M22.1592 14.7638C17.7409 14.7638 14.1592 18.3455 14.1592 22.7638C14.1592 27.1821 17.7409 30.7638 22.1592 30.7638C26.5775 30.7638 30.1592 27.1821 30.1592 22.7638C30.1592 18.3455 26.5775 14.7638 22.1592 14.7638ZM12.1592 22.7638C12.1592 17.2409 16.6363 12.7638 22.1592 12.7638C27.682 12.7638 32.1592 17.2409 32.1592 22.7638C32.1592 28.2866 27.682 32.7638 22.1592 32.7638C16.6363 32.7638 12.1592 28.2866 12.1592 22.7638Z" fill="#F5F7FA"/>
<path fill-rule="evenodd" clip-rule="evenodd" d="M18.8881 20.696C18.5952 20.4031 18.5952 19.9282 18.8881 19.6353C19.181 19.3424 19.6559 19.3424 19.9488 19.6353L21.8082 21.4948C21.8864 21.5729 22.013 21.5729 22.0911 21.4948L23.9505 19.6353C24.2434 19.3424 24.7183 19.3424 25.0112 19.6353C25.3041 19.9282 25.3041 20.4031 25.0112 20.696L23.1517 22.5554C23.0736 22.6335 23.0736 22.7602 23.1517 22.8383L25.0079 24.6944C25.3008 24.9873 25.3008 25.4622 25.0079 25.7551C24.715 26.048 24.2401 26.048 23.9472 25.7551L22.0911 23.8989C22.013 23.8208 21.8864 23.8208 21.8082 23.8989L19.9521 25.7551C19.6592 26.048 19.1844 26.048 18.8915 25.7551C18.5986 25.4622 18.5986 24.9873 18.8915 24.6944L20.7476 22.8383C20.8257 22.7602 20.8257 22.6335 20.7476 22.5554L18.8881 20.696Z" fill="white"/>
<defs>
<filter id="filter0_d_2626_4687" x="6.85205" y="1.23633" width="13.0078" height="8.12409" filterUnits="userSpaceOnUse" color-interpolation-filters="sRGB">
<feFlood flood-opacity="0" result="BackgroundImageFix"/>
<feColorMatrix in="SourceAlpha" type="matrix" values="0 0 0 0 0 0 0 0 0 0 0 0 0 0 0 0 0 0 127 0" result="hardAlpha"/>
<feOffset dy="0.138862"/>
<feComposite in2="hardAlpha" operator="out"/>
<feColorMatrix type="matrix" values="0 0 0 0 0.0645833 0 0 0 0 0.0904167 0 0 0 0 0.129167 0 0 0 0.8 0"/>
<feBlend mode="normal" in2="BackgroundImageFix" result="effect1_dropShadow_2626_4687"/>
<feBlend mode="normal" in="SourceGraphic" in2="effect1_dropShadow_2626_4687" result="shape"/>
</filter>
<linearGradient id="paint0_linear_2626_4687" x1="13.4089" y1="4.29919" x2="13.4089" y2="30.5164" gradientUnits="userSpaceOnUse">
<stop stop-color="#B3CDFA"/>
<stop offset="0.03125" stop-color="#6A89BD"/>
<stop offset="0.0989583" stop-color="#6C85AE"/>
<stop offset="0.890625" stop-color="#6C84AC"/>
<stop offset="1" stop-color="#425575"/>
</linearGradient>
<linearGradient id="paint1_linear_2626_4687" x1="6.97738" y1="6.54139" x2="27.5846" y2="26.9099" gradientUnits="userSpaceOnUse">
<stop offset="0.182414" stop-color="#F4F8FF"/>
<stop offset="0.976047" stop-color="#C1D7F3"/>
<stop offset="1" stop-color="#E1EFFF"/>
</linearGradient>
<linearGradient id="paint2_linear_2626_4687" x1="13.356" y1="0.563724" x2="13.356" y2="9.4651" gradientUnits="userSpaceOnUse">
<stop stop-color="#F3C78E"/>
<stop offset="0.432874" stop-color="#E8AD6E"/>
<stop offset="0.78125" stop-color="#E3A161"/>
<stop offset="1" stop-color="#C58851"/>
</linearGradient>
<linearGradient id="paint3_linear_2626_4687" x1="11.3766" y1="12.3154" x2="11.3766" y2="13.3154" gradientUnits="userSpaceOnUse">
<stop stop-color="#81A3CB"/>
<stop offset="1" stop-color="#7E96B5"/>
</linearGradient>
<linearGradient id="paint4_linear_2626_4687" x1="9.24992" y1="15.9153" x2="9.24992" y2="16.9153" gradientUnits="userSpaceOnUse">
<stop stop-color="#81A3CB"/>
<stop offset="1" stop-color="#7E96B5"/>
</linearGradient>
</defs>
</svg>
