<svg width="31" height="31" viewBox="0 0 31 31" fill="none" xmlns="http://www.w3.org/2000/svg">
<path fill-rule="evenodd" clip-rule="evenodd" d="M5.03849 0.49292C2.61959 0.49292 0.658691 2.45382 0.658691 4.87272V22.3918C0.658691 24.8106 2.6196 26.7716 5.03849 26.7716H13.8708C12.3046 25.1521 11.3409 22.9463 11.3409 20.5155C11.3409 15.5449 15.3703 11.5155 20.3409 11.5155C22.9467 11.5155 25.2939 12.6229 26.9375 14.3929L26.9375 4.87272C26.9375 2.45382 24.9766 0.49292 22.5577 0.49292H5.03849Z" fill="url(#paint0_linear_2626_4654)"/>
<path d="M18.4703 0.484619L18.4703 6.10072C18.4703 7.24276 17.2182 7.9426 16.2454 7.3442L14.5639 6.30975C14.0948 6.02114 13.5031 6.02114 13.034 6.30975L11.3524 7.34423C10.3797 7.94263 9.1275 7.2428 9.12749 6.10077L9.12744 0.484619H18.4703Z" fill="url(#paint1_linear_2626_4654)"/>
<path d="M29.3408 20.5154C29.3408 25.4859 25.3114 29.5154 20.3408 29.5154C15.3703 29.5154 11.3408 25.4859 11.3408 20.5154C11.3408 15.5448 15.3703 11.5154 20.3408 11.5154C25.3114 11.5154 29.3408 15.5448 29.3408 20.5154Z" fill="#C5A638"/>
<path fill-rule="evenodd" clip-rule="evenodd" d="M20.3408 12.5154C15.9225 12.5154 12.3408 16.0971 12.3408 20.5154C12.3408 24.9337 15.9225 28.5154 20.3408 28.5154C24.7591 28.5154 28.3408 24.9337 28.3408 20.5154C28.3408 16.0971 24.7591 12.5154 20.3408 12.5154ZM10.3408 20.5154C10.3408 14.9925 14.818 10.5154 20.3408 10.5154C25.8637 10.5154 30.3408 14.9925 30.3408 20.5154C30.3408 26.0382 25.8637 30.5154 20.3408 30.5154C14.818 30.5154 10.3408 26.0382 10.3408 20.5154Z" fill="#F5F7FA"/>
<path fill-rule="evenodd" clip-rule="evenodd" d="M17.5199 23.9859C17.2816 23.6471 17.3631 23.1793 17.7018 22.941L19.7235 21.5188L19.7235 17.339C19.7235 16.9247 20.0593 16.589 20.4735 16.589C20.8878 16.589 21.2235 16.9248 21.2235 17.339L21.2235 21.9081C21.2235 22.1523 21.1047 22.3811 20.9051 22.5216L18.5649 24.1678C18.2261 24.4061 17.7583 24.3247 17.5199 23.9859Z" fill="white"/>
<defs>
<linearGradient id="paint0_linear_2626_4654" x1="13.7981" y1="0.492859" x2="13.7981" y2="26.7715" gradientUnits="userSpaceOnUse">
<stop stop-color="#D1AF8F"/>
<stop offset="1" stop-color="#A48466"/>
</linearGradient>
<linearGradient id="paint1_linear_2626_4654" x1="13.8047" y1="-0.663007" x2="13.8047" y2="11.8453" gradientUnits="userSpaceOnUse">
<stop stop-color="#855957"/>
<stop offset="0.354167" stop-color="#5B3836"/>
</linearGradient>
</defs>
</svg>
